<?xml version="1.0" standalone="no"?>
<!DOCTYPE svg PUBLIC "-//W3C//DTD SVG 20010904//EN"
 "http://www.w3.org/TR/2001/REC-SVG-20010904/DTD/svg10.dtd">
<svg version="1.0" xmlns="http://www.w3.org/2000/svg"
 width="1024.000000pt" height="1024.000000pt" viewBox="0 0 1024.000000 1024.000000"
 preserveAspectRatio="xMidYMid meet">

<g transform="translate(0.000000,1024.000000) scale(0.100000,-0.100000)"
fill="#000000" stroke="none">
<path d="M3383 8023 c9 -2 23 -2 30 0 6 3 -1 5 -18 5 -16 0 -22 -2 -12 -5z"/>
<path d="M3493 8023 c20 -2 54 -2 75 0 20 2 3 4 -38 4 -41 0 -58 -2 -37 -4z"/>
<path d="M3713 8023 c9 -2 25 -2 35 0 9 3 1 5 -18 5 -19 0 -27 -2 -17 -5z"/>
<path d="M3848 8023 c6 -2 18 -2 25 0 6 3 1 5 -13 5 -14 0 -19 -2 -12 -5z"/>
<path d="M4098 8023 c6 -2 18 -2 25 0 6 3 1 5 -13 5 -14 0 -19 -2 -12 -5z"/>
<path d="M4178 8023 c12 -2 32 -2 45 0 12 2 2 4 -23 4 -25 0 -35 -2 -22 -4z"/>
<path d="M4443 8023 c26 -2 67 -2 90 0 23 2 2 3 -48 3 -49 0 -68 -1 -42 -3z"/>
<path d="M5182 8023 c322 -2 853 -2 1180 0 326 1 62 2 -587 2 -649 0 -916 -1
-593 -2z"/>
<path d="M3218 8013 c6 -2 18 -2 25 0 6 3 1 5 -13 5 -14 0 -19 -2 -12 -5z"/>
<path d="M7013 8013 c26 -2 45 -8 42 -14 -6 -9 21 -13 80 -11 17 0 22 -2 12
-5 -13 -3 -17 -11 -14 -25 5 -19 5 -19 -16 -1 -18 15 -20 15 -8 1 7 -10 10
-25 7 -34 -5 -14 -9 -14 -23 -3 -15 13 -15 12 -5 -8 16 -29 15 -34 -4 -26 -10
4 -20 -1 -27 -13 -10 -17 -11 -17 -16 -1 -6 17 -8 17 -27 -1 -16 -16 -22 -17
-32 -5 -8 8 -9 13 -2 14 19 3 25 5 44 15 16 10 17 12 2 17 -10 4 -15 3 -12 -2
6 -9 -44 -26 -54 -19 -3 2 -4 10 -2 18 2 13 2 13 -7 0 -7 -9 -6 -19 1 -28 8
-9 8 -16 1 -23 -8 -8 -13 -7 -17 0 -4 6 -14 11 -22 11 -19 0 -18 -37 2 -48 15
-8 14 -10 -1 -16 -10 -3 -20 -4 -23 -1 -3 3 0 5 7 5 7 0 10 4 7 9 -3 5 -22 9
-42 9 -26 0 -34 -4 -30 -14 3 -8 1 -14 -3 -14 -5 0 -11 7 -15 15 -3 8 -1 15 5
15 6 0 7 5 4 10 -10 15 -23 12 -29 -8 -3 -10 -15 -18 -26 -19 -13 -1 -18 2
-13 10 4 7 0 6 -10 -2 -9 -7 -14 -17 -11 -22 3 -5 0 -9 -5 -9 -6 0 -11 5 -11
11 0 6 -7 8 -16 5 -8 -3 -12 -2 -9 4 3 6 0 10 -7 11 -7 0 -31 2 -52 4 -28 2
-35 0 -23 -7 21 -11 23 -40 2 -32 -8 4 -12 10 -9 15 3 5 -2 6 -10 3 -9 -3 -13
-11 -9 -17 3 -5 1 -7 -5 -3 -5 3 -13 0 -16 -6 -4 -9 -5 -8 -5 2 1 8 1 24 0 35
-2 19 -2 19 -14 -2 -10 -18 -16 -20 -31 -11 -14 8 -17 7 -12 -1 4 -6 1 -11 -8
-11 -9 0 -16 -5 -16 -11 0 -5 -8 -9 -17 -7 -10 1 -25 -2 -33 -7 -13 -8 -13 -7
-1 8 7 9 17 15 21 12 18 -11 16 11 -3 29 -19 18 -20 18 -14 1 6 -15 5 -16 -8
-5 -8 7 -12 17 -8 23 3 6 1 7 -6 3 -6 -4 -8 -13 -4 -19 11 -18 12 -36 2 -43
-5 -3 -9 5 -9 17 0 21 -1 21 -26 -6 -20 -22 -28 -25 -37 -15 -9 10 -9 11 0 6
7 -4 17 3 24 16 11 20 10 22 -3 10 -9 -7 -28 -11 -43 -8 -24 4 -25 3 -14 -12
8 -9 9 -14 5 -10 -5 4 -15 3 -22 -3 -9 -8 -11 -6 -7 9 3 13 -2 21 -16 25 -17
4 -19 2 -12 -11 6 -11 4 -21 -5 -30 -8 -7 -14 -8 -14 -2 0 5 -8 10 -17 10 -15
0 -14 2 2 14 18 13 18 14 -8 9 -15 -3 -24 -9 -21 -14 3 -5 1 -9 -5 -9 -5 0
-13 -10 -17 -22 -6 -21 -7 -21 -18 -2 -13 23 -93 30 -93 8 0 -8 3 -14 7 -14 4
0 7 -6 7 -14 0 -7 -7 -13 -16 -11 -9 1 -16 7 -16 13 0 6 -3 14 -7 18 -12 11
-10 26 2 19 6 -3 10 -1 10 4 0 6 -4 11 -9 11 -17 0 -23 -20 -11 -35 10 -12 9
-15 -4 -15 -9 0 -16 8 -17 18 0 10 -3 12 -6 4 -2 -6 -10 -9 -16 -5 -7 4 -5 -2
3 -13 8 -10 10 -16 5 -11 -5 4 -15 -5 -22 -20 -10 -23 -12 -24 -7 -4 5 17 3
21 -6 16 -8 -5 -11 -4 -6 3 3 6 2 13 -3 16 -5 4 -12 -2 -14 -11 -4 -15 -5 -15
-6 2 -1 14 -8 21 -22 21 -18 0 -18 -2 -5 -12 9 -6 16 -14 16 -18 0 -9 -24 -3
-32 9 -4 5 -11 -2 -17 -15 -7 -18 -10 -20 -10 -7 -1 21 -21 23 -21 2 0 -18
-16 -20 -26 -3 -5 7 -3 8 5 3 10 -6 10 -3 0 13 -11 18 -14 18 -31 3 -20 -17
-24 -26 -6 -15 7 5 8 3 3 -5 -5 -9 -13 -7 -31 10 -13 12 -24 17 -24 11 0 -7
-9 -12 -19 -12 -24 0 -36 -16 -19 -23 7 -3 8 -6 2 -6 -5 -1 -19 6 -30 14 -19
15 -19 15 1 9 17 -6 18 -5 7 7 -11 12 -16 10 -31 -10 -14 -18 -20 -21 -26 -11
-6 9 -4 11 5 5 9 -5 11 -4 6 4 -5 8 -14 6 -32 -8 -20 -16 -31 -18 -51 -10 -13
5 -29 7 -34 3 -5 -3 -9 1 -9 8 0 10 -2 10 -9 -1 -7 -11 -9 -11 -14 0 -4 10 -6
10 -6 2 -1 -7 -10 -13 -21 -13 -11 0 -20 -5 -20 -11 0 -5 -4 -8 -9 -5 -5 4
-12 0 -14 -6 -3 -8 -6 -6 -6 5 -1 20 -15 22 -33 3 -11 -11 -15 -11 -26 3 -11
14 -12 14 -10 -3 2 -11 -4 -20 -14 -21 -11 -2 -18 3 -18 13 -1 16 -1 16 -10 1
-5 -9 -21 -20 -35 -23 -14 -4 -23 -11 -20 -17 7 -10 -24 -7 -64 6 -11 3 -22 1
-26 -5 -3 -6 -10 -8 -14 -5 -5 2 -16 -4 -26 -15 -21 -23 -41 -26 -48 -7 -3 6
-6 3 -6 -9 -1 -11 -11 -29 -23 -40 -22 -19 -22 -19 -8 0 13 18 13 19 -1 14 -9
-4 -22 -1 -29 5 -10 9 -11 9 -6 0 9 -16 -23 -32 -71 -35 -7 -1 -13 -5 -13 -10
0 -5 -5 -6 -10 -3 -8 5 -7 12 2 22 12 15 11 15 -10 2 -12 -8 -22 -20 -22 -27
0 -7 -4 -10 -10 -7 -5 3 -10 -2 -10 -12 0 -15 -2 -15 -9 -3 -6 8 -7 18 -5 22
6 9 -29 6 -36 -4 -3 -3 -1 -10 4 -15 5 -5 6 -2 1 6 -5 10 -4 12 4 7 16 -10 3
-28 -17 -24 -10 1 -27 -3 -39 -10 -15 -8 -23 -9 -23 -2 0 5 -7 10 -15 10 -8 0
-15 -4 -15 -8 0 -5 -6 -9 -14 -9 -8 0 -12 8 -10 21 3 12 2 15 -2 9 -3 -7 -19
-13 -35 -13 -16 0 -29 6 -30 13 0 6 -4 3 -9 -8 -5 -11 -9 -15 -9 -9 -1 7 -10
14 -21 17 -11 3 -18 1 -14 -4 9 -16 -19 -10 -39 9 -11 9 -18 13 -15 7 7 -12
-17 -37 -27 -27 -4 4 -12 7 -18 7 -7 0 -11 9 -9 18 3 15 0 17 -17 8 -11 -6
-23 -16 -26 -21 -4 -7 -14 -6 -28 2 -12 7 -26 13 -32 14 -5 1 -18 5 -28 9 -12
5 -17 3 -15 -5 2 -7 -7 -13 -19 -15 -12 -1 -20 2 -17 7 3 4 1 8 -5 8 -5 0 -12
-4 -15 -9 -3 -4 -17 -7 -32 -5 -15 1 -23 -1 -18 -6 5 -5 34 -11 64 -13 30 -2
-8 -4 -84 -5 -138 -2 -188 5 -68 9 45 2 62 6 62 16 0 10 -5 11 -18 4 -13 -7
-23 -6 -30 1 -7 7 -12 8 -12 2 0 -11 -52 -10 -69 1 -10 5 -16 -14 -12 -37 0
-5 -10 -8 -22 -8 -21 0 -140 -28 -192 -45 -14 -5 -13 -2 5 10 25 16 25 16 -15
11 -22 -3 -41 -5 -42 -6 -11 -1 1 -19 15 -22 11 -3 6 -8 -18 -16 -28 -9 -32
-9 -19 1 10 8 14 19 9 31 -6 19 -7 19 -12 -2 -6 -22 -28 -31 -28 -11 0 5 6 7
13 3 9 -5 9 -4 0 6 -14 15 -23 10 -27 -12 -1 -7 -5 -19 -10 -27 -7 -10 -3 -12
15 -6 31 10 23 2 -21 -19 -20 -10 -28 -11 -20 -4 21 18 25 42 5 35 -8 -4 -15
-1 -15 6 -1 7 -6 5 -14 -5 -15 -21 -42 -24 -49 -5 -4 10 -6 10 -6 0 -1 -7 -10
-13 -21 -13 -11 0 -20 -5 -20 -11 0 -5 -4 -7 -10 -4 -5 3 -68 7 -140 7 -71 1
-130 6 -130 11 0 5 -6 7 -12 4 -7 -2 -25 0 -41 4 -19 5 -25 4 -21 -3 5 -7 -2
-9 -20 -6 -14 3 -26 1 -26 -4 0 -6 20 -8 45 -6 25 2 45 0 45 -4 0 -5 -30 -8
-67 -8 -49 0 -64 3 -53 10 11 8 7 9 -15 6 -16 -3 -49 -6 -73 -8 -24 -1 -46 -6
-48 -10 -8 -13 -26 -9 -19 5 4 6 -2 1 -13 -12 -12 -15 -25 -22 -36 -18 -9 4
-16 2 -16 -4 0 -6 -7 -9 -15 -5 -8 3 -15 1 -15 -3 0 -5 -8 -8 -17 -6 -10 1
-25 -3 -33 -10 -22 -18 -50 -26 -50 -14 0 6 -7 4 -15 -5 -8 -8 -15 -20 -15
-26 0 -7 -8 -10 -19 -7 -13 3 -21 -1 -24 -14 -3 -11 -11 -19 -19 -19 -10 0 -9
3 2 10 13 9 13 10 0 10 -9 0 -21 -5 -28 -12 -9 -9 -12 -9 -12 0 0 6 8 15 18
21 15 9 15 10 -5 8 -12 0 -21 -6 -20 -12 1 -5 -3 -9 -10 -8 -7 2 -10 -4 -7
-12 3 -8 -1 -22 -10 -30 -15 -15 -16 -15 -16 2 -1 17 -1 17 -14 0 -14 -18 -14
-18 -20 0 -3 10 -4 6 -2 -9 4 -32 -9 -38 -17 -8 -3 11 -11 20 -19 19 -10 0
-10 -2 0 -6 6 -2 12 -16 12 -30 0 -19 -4 -24 -16 -19 -8 3 -12 2 -9 -4 6 -10
-35 -15 -82 -11 -14 1 -23 -4 -23 -12 0 -10 9 -13 27 -11 28 4 28 4 3 -5 -31
-10 -48 -4 -53 17 -4 15 -5 15 -6 0 0 -10 -9 -18 -18 -18 -14 0 -15 2 -4 9 7
5 9 11 4 14 -15 9 -36 -9 -28 -23 5 -9 4 -11 -3 -6 -7 4 -12 14 -12 22 0 8 -5
12 -10 9 -6 -4 -8 -11 -5 -16 4 -5 -4 -9 -15 -9 -19 0 -21 -4 -16 -25 4 -14 3
-25 -2 -25 -17 0 -20 12 -11 43 5 17 5 35 0 40 -12 12 -20 -61 -31 -258 -13
-231 -12 -2973 0 -3193 16 -277 58 -451 151 -632 128 -251 340 -418 629 -498
210 -59 151 -57 2160 -57 1711 0 1853 1 1961 18 159 24 276 60 393 120 207
106 358 269 454 491 35 80 93 291 91 330 -1 11 -7 -4 -14 -34 l-13 -55 -1 55
c0 71 -3 91 -10 84 -3 -3 -7 -10 -7 -15 -1 -5 -2 -13 -3 -17 0 -5 -7 -9 -13
-9 -7 0 -21 -4 -30 -8 -11 -4 -18 -3 -18 5 0 6 5 8 10 5 6 -3 10 -2 10 3 0 10
-29 26 -42 24 -5 -1 -8 3 -8 8 0 6 -4 10 -8 10 -5 0 -9 -7 -9 -15 0 -9 7 -14
17 -13 9 2 18 0 18 -4 4 -19 1 -25 -13 -25 -8 0 -12 4 -10 8 3 4 -2 10 -11 13
-8 3 -13 10 -9 15 3 5 1 12 -4 16 -6 3 -8 13 -5 23 5 15 4 15 -6 -1 -6 -10 -9
-25 -6 -33 4 -9 2 -12 -5 -8 -6 3 -9 14 -6 23 3 14 -3 17 -30 18 -42 1 -42 1
-47 44 -2 19 -4 37 -5 41 0 5 -4 7 -8 7 -5 -1 -15 -1 -23 0 -13 1 -13 3 -1 10
8 5 21 7 30 4 9 -3 8 1 -4 8 -20 14 -25 15 -47 18 -14 1 -1 16 15 16 7 0 17
-6 24 -15 6 -8 15 -12 19 -7 4 4 2 7 -4 7 -7 0 -12 6 -12 14 0 11 -11 13 -40
11 -23 -2 -38 1 -34 6 3 5 11 6 17 2 9 -5 9 -3 0 8 -10 12 -10 18 0 29 8 9 8
11 0 6 -7 -4 -13 2 -15 16 -2 13 -7 23 -13 24 -5 0 -18 4 -28 9 -15 6 -16 10
-5 16 10 7 10 9 -3 9 -12 0 -15 7 -12 28 l4 27 -16 -25 -15 -25 6 27 c5 23 3
26 -15 21 -12 -3 -21 -1 -21 5 0 5 9 12 20 15 11 3 20 11 20 17 0 10 -3 10
-15 0 -11 -9 -19 -8 -37 4 -12 9 -17 16 -11 16 6 0 14 8 17 17 4 10 4 14 0 10
-4 -4 -13 -2 -21 5 -11 9 -12 7 -6 -8 6 -16 5 -17 -9 -4 -9 8 -14 18 -11 23 2
4 -3 7 -11 7 -9 0 -16 5 -16 10 0 7 6 7 19 0 29 -15 35 -12 15 8 -17 16 -17
17 0 20 16 4 16 5 -1 19 -13 11 -14 13 -3 10 10 -3 16 2 16 14 0 11 -4 19 -8
19 -4 0 -8 9 -8 20 0 23 -15 26 -27 5 -5 -9 -13 -11 -22 -5 -12 7 -12 11 2 25
21 20 21 17 -2 37 -18 16 -20 15 -18 -2 1 -12 6 -16 17 -12 11 4 10 0 -4 -16
-11 -12 -20 -22 -21 -22 -2 0 1 62 4 83 0 5 5 6 10 2 5 -3 13 0 16 6 4 5 14 8
24 4 12 -5 13 -4 4 6 -9 9 -16 9 -25 1 -9 -7 -19 -7 -28 -2 -10 7 -11 10 -3
10 7 0 12 3 12 8 -4 21 2 32 14 26 9 -6 8 -3 -1 8 -8 9 -20 14 -28 11 -8 -3
-14 -1 -14 5 0 6 6 13 13 15 10 4 10 6 0 6 -7 1 -13 8 -13 17 0 13 3 14 13 5
10 -8 14 -7 14 4 0 8 -3 12 -6 10 -4 -2 -18 6 -31 16 l-25 20 24 -11 c22 -11
23 -10 17 6 -6 18 -5 18 9 0 12 -15 15 -16 15 -5 0 9 -3 19 -7 23 -10 10 -13
37 -3 31 5 -3 13 3 19 12 5 10 12 17 15 16 15 -7 22 -1 22 17 0 11 -5 19 -11
17 -5 -2 -9 -11 -9 -19 1 -13 -5 -14 -38 -5 -34 9 -37 11 -21 22 12 9 23 10
35 4 16 -9 22 -5 19 13 0 3 7 5 17 3 24 -4 43 15 37 36 -3 9 -1 20 5 24 6 3 8
10 5 15 -3 5 0 12 6 16 7 4 10 3 6 -2 -3 -5 6 -14 19 -21 20 -9 24 -8 24 4 0
8 -4 12 -9 8 -5 -3 -13 0 -17 6 -4 7 -3 9 3 6 6 -4 19 0 29 7 12 9 23 11 30 5
13 -11 28 16 18 32 -3 5 -2 9 3 8 27 -5 35 1 23 16 -10 12 -10 15 2 15 8 0 20
-6 28 -12 12 -11 12 -10 2 3 -9 12 -7 19 9 32 11 10 25 15 31 11 7 -4 8 -3 4
4 -4 7 3 14 19 18 13 3 23 10 20 14 -3 5 4 11 15 15 21 7 28 25 8 25 -6 0 -8
3 -5 7 4 3 16 -2 27 -12 18 -16 25 -14 21 8 -1 5 3 6 9 2 6 -3 7 -12 3 -18 -5
-9 -3 -9 8 -1 17 14 49 10 60 -8 6 -9 9 -6 9 11 0 13 3 21 7 18 3 -4 12 -2 20
5 10 8 12 8 8 -3 -4 -10 2 -15 14 -16 17 -1 20 5 19 48 0 28 3 53 6 56 3 4 6
-1 6 -9 0 -9 7 -18 14 -21 9 -4 13 -1 10 7 -3 7 0 23 5 37 6 16 10 -174 10
-550 1 -316 3 -577 6 -579 10 -10 5 2994 -5 3154 -5 88 -17 198 -26 244 -57
303 -197 533 -415 681 -60 40 -75 47 -63 27 4 -7 3 -8 -5 -4 -6 4 -9 11 -6 16
9 15 -113 72 -138 65 -16 -5 -18 -4 -8 3 11 8 -7 17 -70 36 -123 37 -170 46
-267 50 -48 2 -66 2 -39 -1z m224 -39 c-3 -3 -12 -4 -19 -1 -8 3 -5 6 6 6 11
1 17 -2 13 -5z m6 -46 c-2 -5 -13 -8 -24 -8 -21 0 -26 26 -7 32 15 5 38 -14
31 -24z m75 26 c18 -5 20 -9 11 -20 -15 -19 -30 -18 -23 1 4 10 0 15 -11 15
-9 0 -14 -4 -10 -9 6 -11 -13 -26 -22 -17 -6 6 15 36 26 36 3 0 16 -3 29 -6z
m-644 -145 c3 -3 -4 -5 -14 -6 -11 -1 -20 2 -20 7 0 8 25 8 34 -1z m-560 -77
c-8 -2 -14 -9 -14 -15 0 -7 -4 -6 -10 3 -5 8 -10 20 -10 25 0 6 5 3 10 -5 8
-13 10 -12 10 3 0 15 2 16 14 5 12 -11 12 -13 0 -16z m-954 -119 c0 -5 -5 -15
-10 -23 -7 -12 -9 -10 -7 8 1 19 17 33 17 15z m-40 -13 c0 -5 -5 -10 -11 -10
-5 0 -7 5 -4 10 3 6 8 10 11 10 2 0 4 -4 4 -10z m-772 -137 c-10 -2 -26 -2
-35 0 -10 3 -2 5 17 5 19 0 27 -2 18 -5z m-21 -19 c137 -20 250 -53 384 -113
207 -92 327 -181 405 -298 58 -88 77 -159 71 -278 -2 -56 -11 -116 -19 -135
l-15 -35 -10 60 c-17 91 -49 168 -100 235 -25 34 -47 59 -49 57 -2 -2 0 -17 5
-33 26 -90 21 -231 -15 -481 -6 -39 -4 -42 24 -57 41 -21 80 -20 120 4 41 25
42 10 0 -25 -28 -24 -39 -27 -85 -23 -29 3 -53 3 -53 0 0 -15 104 -156 147
-200 52 -52 53 -53 40 -85 -9 -20 -34 -46 -71 -70 -51 -35 -57 -42 -52 -65 19
-90 19 -88 -6 -108 -20 -15 -24 -26 -20 -55 3 -30 -1 -40 -27 -61 -29 -25 -30
-27 -24 -96 3 -38 3 -81 -1 -96 -20 -80 -145 -77 -440 8 -65 19 -92 23 -102
15 -7 -6 -23 -41 -36 -77 -33 -96 -33 -304 -1 -407 70 -221 291 -433 617 -592
66 -32 113 -59 104 -61 -21 -4 -201 42 -633 163 -437 123 -530 145 -758 185
-254 44 -376 54 -642 54 -305 0 -487 -26 -764 -110 -47 -15 -93 -29 -101 -31
-10 -3 -9 -1 3 7 30 20 300 98 428 124 167 34 317 52 544 67 l190 12 80 81
c168 169 255 370 255 588 0 46 -6 108 -14 138 -12 47 -23 62 -78 109 -148 128
-283 299 -343 435 -151 342 -90 725 155 976 224 229 539 326 887 274z m108 6
c14 -7 8 -8 -20 -3 -22 3 -42 7 -44 9 -9 8 45 2 64 -6z m80 -20 c13 -5 14 -9
5 -9 -8 0 -24 4 -35 9 -13 5 -14 9 -5 9 8 0 24 -4 35 -9z m65 -20 c8 -5 11
-10 5 -10 -5 0 -17 5 -25 10 -8 5 -10 10 -5 10 6 0 17 -5 25 -10z m-1517 -67
c-7 -2 -21 -2 -30 0 -10 3 -4 5 12 5 17 0 24 -2 18 -5z m200 0 c-7 -2 -21 -2
-30 0 -10 3 -4 5 12 5 17 0 24 -2 18 -5z m-284 -17 c-2 -1 -19 -8 -36 -14 -37
-12 -45 -6 -10 8 22 9 54 13 46 6z m312 -12 c63 -19 149 -61 149 -73 0 -4 -29
-27 -64 -50 -91 -59 -169 -149 -222 -256 -58 -120 -75 -186 -81 -333 -9 -204
19 -321 134 -562 136 -284 164 -405 128 -558 -14 -59 -48 -136 -77 -175 -11
-15 -13 -2 -13 87 0 71 -4 109 -12 118 -10 9 -13 7 -13 -13 0 -47 -61 -150
-129 -219 -112 -114 -270 -169 -399 -140 l-56 12 63 23 c35 13 79 38 98 57 37
34 93 139 93 172 0 15 -5 13 -35 -13 -99 -86 -251 -86 -332 1 l-22 23 89 0
c84 0 90 2 127 31 25 20 44 47 56 80 35 99 6 229 -117 507 -131 297 -166 553
-106 788 62 244 236 436 447 494 69 19 228 18 294 -1z m-481 -24 c0 -5 -5 -10
-11 -10 -5 0 -7 5 -4 10 3 6 8 10 11 10 2 0 4 -4 4 -10z m89 7 c-19 -15 -79
-47 -79 -43 0 8 62 46 74 46 5 0 7 -1 5 -3z m3160 -51 c25 -26 26 -30 29 -181
l3 -155 -30 -30 c-25 -26 -37 -30 -81 -30 -44 0 -56 4 -81 29 l-29 29 0 150
c0 137 2 151 21 176 12 15 31 32 43 37 36 15 97 3 125 -25z m956 20 c55 -24
65 -55 65 -216 l0 -142 -29 -29 c-25 -24 -38 -29 -79 -29 -92 0 -111 39 -112
223 0 127 12 166 61 190 42 20 51 21 94 3z m-4205 -20 c0 -2 -8 -10 -17 -17
-16 -13 -17 -12 -4 4 13 16 21 21 21 13z m3010 -160 l0 -25 -145 -3 c-197 -4
-188 5 -195 -213 l-5 -165 1023 0 1022 0 0 146 c0 223 -12 234 -244 234 l-146
0 0 26 0 26 163 -4 c186 -3 215 -13 254 -84 22 -39 23 -52 30 -450 l7 -409 63
-42 c35 -24 75 -43 89 -43 66 0 124 -62 124 -131 0 -30 11 -67 34 -114 122
-248 42 -565 -185 -743 -141 -111 -276 -157 -454 -156 -128 0 -203 17 -315 72
-92 45 -228 175 -278 267 -18 33 -30 50 -27 37 l7 -23 -560 3 c-548 3 -561 3
-588 24 -15 11 -37 33 -48 48 -21 27 -21 38 -24 784 -2 416 0 780 3 809 8 63
38 112 85 135 28 15 62 18 173 18 l137 0 0 -24z m990 -1 l0 -25 -330 0 -330 0
0 25 0 25 330 0 330 0 0 -25z m-4475 -15 c3 -5 1 -10 -4 -10 -6 0 -11 5 -11
10 0 6 2 10 4 10 3 0 8 -4 11 -10z m5425 -2336 c0 -7 -4 -16 -10 -19 -5 -3
-10 -1 -10 5 0 6 -4 8 -10 5 -10 -6 -14 7 -5 17 10 10 35 4 35 -8z m-310 -149
c-30 -19 -59 -35 -64 -35 -14 0 -1 10 51 41 68 40 78 36 13 -6z m-80 -39 c0
-5 -209 -106 -218 -105 -8 0 199 108 211 108 4 1 7 -1 7 -3z m140 -46 c0 -5
-5 -10 -11 -10 -5 0 -7 5 -4 10 3 6 8 10 11 10 2 0 4 -4 4 -10z m-400 -80 c-8
-5 -19 -10 -25 -10 -5 0 -3 5 5 10 8 5 20 10 25 10 6 0 3 -5 -5 -10z m297 -35
c0 -11 -4 -12 -14 -4 -7 6 -10 15 -7 20 3 5 -2 9 -11 9 -9 0 -13 5 -10 11 9
13 42 -15 42 -36z m-7 -89 c-5 -13 -6 -27 -2 -32 4 -4 2 -4 -5 0 -7 4 -10 13
-6 21 3 10 -1 15 -13 16 -14 1 -13 3 6 9 14 4 26 8 27 9 1 1 -2 -10 -7 -23z
m28 -68 c-17 -25 -30 -27 -37 -7 -2 8 2 10 12 6 9 -3 18 0 21 9 3 8 8 14 12
14 3 0 0 -10 -8 -22z m-2305 -640 l-3 -653 -170 -3 -170 -2 -2 387 c-3 360 -4
386 -19 358 -30 -57 -251 -440 -261 -452 -7 -9 -38 -13 -88 -13 l-78 0 -68
118 c-37 64 -101 173 -141 242 l-73 125 0 -382 0 -383 -165 0 -165 0 0 650 0
650 189 0 189 0 60 -107 c33 -60 106 -191 162 -293 57 -102 104 -186 105 -188
1 -1 75 133 165 298 l163 300 186 0 186 0 -2 -652z m1009 624 c136 -37 211
-89 253 -177 51 -104 41 -250 -22 -326 -33 -38 -109 -89 -135 -89 -10 0 -18
-4 -18 -10 0 -5 13 -10 28 -10 74 0 183 -87 226 -179 31 -67 30 -206 -2 -276
-30 -66 -74 -110 -146 -147 -109 -55 -153 -60 -593 -65 l-403 -5 0 657 0 657
368 -4 c334 -4 374 -7 444 -26z m1283 -32 c3 -5 1 -10 -4 -10 -6 0 -11 5 -11
10 0 6 2 10 4 10 3 0 8 -4 11 -10z m75 -130 c8 -5 11 -10 5 -10 -5 0 -17 5
-25 10 -8 5 -10 10 -5 10 6 0 17 -5 25 -10z m-19 -27 c13 -16 12 -17 -3 -4
-17 13 -22 21 -14 21 2 0 10 -8 17 -17z m189 -298 c0 -8 -2 -15 -4 -15 -2 0
-6 7 -10 15 -3 8 -1 15 4 15 6 0 10 -7 10 -15z m75 -137 c5 4 5 1 1 -6 -6 -10
-11 -10 -22 -1 -8 6 -14 14 -14 16 0 3 6 0 13 -6 8 -6 18 -7 22 -3z"/>
<path d="M6260 6530 c-19 -19 -20 -33 -20 -215 0 -182 1 -196 20 -215 19 -19
33 -20 245 -20 l225 0 0 219 c0 216 0 220 -22 235 -19 13 -58 16 -225 16 -190
0 -204 -1 -223 -20z"/>
<path d="M5649 6523 c-11 -12 -14 -60 -14 -208 0 -176 2 -195 19 -214 18 -20
28 -21 233 -21 200 0 214 1 233 20 19 19 20 33 20 213 0 175 -2 196 -18 210
-16 15 -48 17 -239 17 -193 0 -222 -2 -234 -17z"/>
<path d="M6850 6520 c-19 -19 -20 -33 -20 -221 l0 -201 35 27 c99 75 287 131
417 123 l69 -4 -3 134 c-3 119 -5 135 -22 148 -16 11 -66 14 -238 14 -205 0
-219 -1 -238 -20z m454 0 c25 -9 26 -11 25 -102 -1 -64 -4 -84 -9 -63 -4 17
-8 23 -9 15 -1 -13 -2 -13 -11 0 -6 10 -10 11 -10 3 0 -7 -8 -12 -17 -11 -34
2 -54 -2 -49 -11 13 -20 -24 -19 -39 2 -14 19 -20 17 -16 -7 1 -5 -5 -6 -14
-3 -8 4 -15 1 -15 -6 0 -8 -4 -6 -10 3 -8 13 -10 13 -10 1 0 -11 -3 -12 -12
-3 -7 7 -17 8 -29 2 -12 -7 -20 -6 -25 2 -5 7 -3 8 6 3 9 -5 11 -4 6 4 -5 7
-13 8 -23 2 -18 -9 -53 -3 -53 10 0 5 -7 5 -17 2 -11 -5 -14 -3 -8 6 6 10 3
11 -15 1 -15 -8 -20 -8 -16 -1 5 7 -2 11 -17 11 -30 0 -37 16 -37 81 0 32 -4
49 -12 50 -7 0 -4 4 7 9 28 12 398 12 429 0z"/>
<path d="M6900 6400 c0 -5 5 -10 11 -10 5 0 7 5 4 10 -3 6 -8 10 -11 10 -2 0
-4 -4 -4 -10z"/>
<path d="M7120 6144 c-157 -33 -320 -158 -387 -295 -94 -190 -79 -408 38 -583
112 -168 298 -255 518 -243 205 11 377 106 484 267 64 97 81 158 81 295 -1 98
-5 131 -22 179 -20 55 -21 61 -6 85 22 38 -47 -39 -317 -351 -162 -187 -248
-280 -265 -284 -18 -5 -34 0 -52 13 -28 20 -271 297 -323 367 -67 90 -18 196
90 196 46 0 66 -17 188 -162 37 -43 69 -77 73 -76 6 3 203 230 329 381 l74 88
-22 23 c-38 40 -193 106 -246 105 -11 0 14 -10 55 -23 132 -40 201 -86 182
-123 -21 -39 -82 -87 -144 -115 -16 -7 -28 -15 -28 -19 0 -4 -13 -12 -30 -19
-16 -7 -30 -16 -30 -21 0 -5 -9 -9 -21 -9 -11 0 -18 -4 -15 -9 3 -5 -3 -11
-14 -14 -13 -3 -18 -1 -13 6 5 9 3 9 -8 1 -30 -24 -166 4 -190 39 -4 6 -14 7
-23 4 -8 -3 -22 0 -30 8 -8 8 -21 15 -29 15 -7 0 -17 3 -21 7 -12 12 -45 13
-52 2 -4 -7 -16 0 -31 17 -13 16 -22 24 -19 17 4 -6 2 -14 -4 -18 -5 -3 -10 0
-10 7 0 10 -3 9 -11 -2 -8 -12 -10 -8 -7 16 4 26 -11 57 -24 51 -3 -1 14 15
36 36 88 84 218 135 366 147 l95 7 -75 1 c-41 0 -104 -6 -140 -14z m390 -238
c0 -3 -4 -8 -10 -11 -5 -3 -10 -1 -10 4 0 6 5 11 10 11 6 0 10 -2 10 -4z m337
-291 c3 -47 0 -93 -11 -139 -20 -86 -52 -159 -66 -151 -5 3 -7 0 -5 -8 6 -13
-74 -121 -83 -112 -2 2 3 11 12 20 9 9 16 20 16 25 0 11 -35 31 -42 25 -3 -3
-5 1 -6 8 -1 6 -3 24 -6 40 -2 15 0 25 5 21 11 -6 12 9 2 20 -4 3 -8 14 -9 22
-1 9 0 13 3 10 4 -3 24 38 45 92 22 53 46 104 54 113 8 8 14 19 14 24 0 4 11
23 25 41 14 18 25 41 26 51 1 42 21 -35 26 -102z"/>
<path d="M7724 5278 l-19 -23 23 19 c21 18 27 26 19 26 -2 0 -12 -10 -23 -22z"/>
<path d="M5661 5971 c-20 -20 -21 -32 -21 -231 0 -197 1 -211 20 -230 19 -19
33 -20 225 -20 276 0 255 -20 255 253 0 160 -3 207 -14 223 -13 18 -30 19
-230 22 -206 3 -216 2 -235 -17z m451 -9 c10 -10 13 -63 14 -210 1 -108 0
-187 -3 -174 -5 23 -23 31 -23 10 0 -6 -3 -9 -6 -5 -9 8 -33 -16 -26 -27 3 -5
0 -6 -6 -2 -6 4 -24 0 -40 -8 -16 -8 -33 -12 -38 -8 -5 4 -4 1 1 -5 6 -6 30
-13 55 -16 25 -2 -49 -4 -165 -4 -115 0 -193 2 -172 4 20 2 37 8 37 12 0 5
-12 6 -26 3 -17 -3 -25 -1 -21 5 4 6 -5 15 -18 21 l-25 12 0 172 c0 194 3 211
33 226 33 17 412 11 429 -6z"/>
<path d="M6112 5635 c0 -16 2 -22 5 -12 2 9 2 23 0 30 -3 6 -5 -1 -5 -18z"/>
<path d="M5666 5595 c-3 -8 -1 -15 4 -15 6 0 10 7 10 15 0 8 -2 15 -4 15 -2 0
-6 -7 -10 -15z"/>
<path d="M5758 5523 c7 -3 16 -2 19 1 4 3 -2 6 -13 5 -11 0 -14 -3 -6 -6z"/>
<path d="M6272 5974 c-22 -15 -22 -19 -22 -233 0 -191 2 -220 16 -232 12 -10
61 -15 172 -19 l154 -5 -4 60 c-11 134 27 286 97 393 l35 52 -213 0 c-176 0
-216 -3 -235 -16z m238 -6 c-14 -6 -20 -12 -13 -15 7 -2 9 -11 6 -20 -4 -10
-2 -14 4 -10 12 7 11 -6 -1 -35 -4 -9 -5 -22 -1 -27 3 -7 0 -8 -10 -5 -11 5
-14 2 -9 -10 4 -11 1 -16 -11 -16 -15 0 -15 -1 -1 -16 16 -16 12 -39 -4 -29
-12 7 -31 -30 -22 -41 4 -5 0 -3 -9 4 -13 9 -16 9 -16 -3 0 -8 5 -15 11 -15 6
0 0 -6 -14 -13 -14 -8 -24 -19 -22 -25 1 -7 -5 -12 -14 -12 -8 0 -12 -4 -9
-10 3 -6 -1 -7 -10 -4 -12 5 -16 2 -13 -11 2 -10 -3 -19 -10 -21 -7 -1 -8 0
-3 2 6 3 7 12 4 20 -4 12 -8 12 -22 2 -14 -11 -14 -11 -4 3 10 12 9 18 -7 32
-11 9 -20 29 -20 44 0 16 -4 39 -8 53 -4 16 -9 -14 -13 -85 -4 -89 -5 -75 -5
70 l1 179 25 13 c16 8 65 13 135 12 86 0 105 -3 85 -11z"/>
<path d="M6330 5691 c0 -5 5 -13 10 -16 6 -3 10 -2 10 4 0 5 -4 13 -10 16 -5
3 -10 2 -10 -4z"/>
<path d="M6610 5375 c0 -5 5 -17 10 -25 5 -8 10 -10 10 -5 0 6 -5 17 -10 25
-5 8 -10 11 -10 5z"/>
<path d="M5670 3840 l0 -130 138 0 c197 1 252 29 252 133 0 40 -5 54 -28 77
-40 40 -88 50 -234 50 l-128 0 0 -130z"/>
<path d="M5670 3324 l0 -156 153 4 c130 3 159 6 199 25 65 30 90 72 85 141 -8
108 -79 142 -299 142 l-138 0 0 -156z"/>
<path d="M2674 7854 c-18 -14 -18 -15 4 -4 12 6 22 13 22 15 0 8 -5 6 -26 -11z"/>
<path d="M6675 7850 c-3 -5 1 -10 10 -10 9 0 13 5 10 10 -3 6 -8 10 -10 10 -2
0 -7 -4 -10 -10z"/>
<path d="M6861 7851 c-8 -6 -9 -11 -3 -15 6 -3 14 -1 17 5 9 14 2 20 -14 10z"/>
<path d="M6570 7825 c0 -8 4 -15 10 -15 5 0 7 7 4 15 -4 8 -8 15 -10 15 -2 0
-4 -7 -4 -15z"/>
<path d="M6715 7820 c3 -5 8 -10 11 -10 2 0 4 5 4 10 0 6 -5 10 -11 10 -5 0
-7 -4 -4 -10z"/>
<path d="M2544 7758 l-29 -33 33 29 c17 17 32 31 32 33 0 8 -8 1 -36 -29z"/>
<path d="M5835 7740 c-3 -6 1 -7 9 -4 18 7 21 14 7 14 -6 0 -13 -4 -16 -10z"/>
<path d="M2435 7648 c-20 -24 -41 -52 -47 -63 -14 -25 -11 -22 46 48 54 66 55
77 1 15z"/>
<path d="M5238 7653 c7 -3 16 -2 19 1 4 3 -2 6 -13 5 -11 0 -14 -3 -6 -6z"/>
<path d="M2358 7538 c-23 -35 -60 -110 -56 -113 2 -2 20 28 40 66 37 68 44 90
16 47z"/>
<path d="M4731 7494 c0 -11 3 -14 6 -6 3 7 2 16 -1 19 -3 4 -6 -2 -5 -13z"/>
<path d="M3885 7463 c-33 -7 -48 -13 -44 -18 3 -2 27 2 54 10 46 12 37 19 -10
8z"/>
<path d="M2276 7364 c-9 -26 -14 -49 -12 -51 2 -2 11 17 20 43 9 26 14 49 12
51 -2 2 -11 -17 -20 -43z"/>
<path d="M2890 7340 c0 -5 5 -10 11 -10 5 0 7 5 4 10 -3 6 -8 10 -11 10 -2 0
-4 -4 -4 -10z"/>
<path d="M2236 7231 c-18 -80 -19 -91 -8 -91 8 0 34 152 27 158 -2 2 -10 -28
-19 -67z"/>
<path d="M2445 7150 c-4 -6 -12 -7 -18 -4 -7 4 -8 3 -4 -1 13 -15 34 -14 34 1
0 17 -4 18 -12 4z"/>
<path d="M7905 4709 c-3 -4 2 -6 10 -5 21 3 28 13 10 13 -9 0 -18 -4 -20 -8z"/>
<path d="M7706 4623 c-6 -14 -5 -15 5 -6 7 7 10 15 7 18 -3 3 -9 -2 -12 -12z"/>
<path d="M7655 4600 c3 -5 8 -10 11 -10 2 0 4 5 4 10 0 6 -5 10 -11 10 -5 0
-7 -4 -4 -10z"/>
<path d="M7534 4523 c2 -10 6 -17 10 -16 15 3 16 11 2 22 -12 10 -14 9 -12 -6z"/>
<path d="M7506 4462 c-2 -4 -1 -14 4 -22 7 -11 9 -9 7 8 -1 24 -3 26 -11 14z"/>
<path d="M7427 4449 c7 -7 15 -10 18 -7 3 3 -2 9 -12 12 -14 6 -15 5 -6 -5z"/>
<path d="M7456 4362 c-3 -5 1 -9 9 -9 8 0 12 4 9 9 -3 4 -7 8 -9 8 -2 0 -6 -4
-9 -8z"/>
<path d="M7461 4274 c0 -11 3 -14 6 -6 3 7 2 16 -1 19 -3 4 -6 -2 -5 -13z"/>
<path d="M8043 3620 c0 -36 2 -50 4 -32 2 17 2 47 0 65 -2 17 -4 3 -4 -33z"/>
<path d="M7770 3551 c0 -5 5 -13 10 -16 6 -3 10 -2 10 4 0 5 -4 13 -10 16 -5
3 -10 2 -10 -4z"/>
<path d="M8033 3505 c0 -22 2 -30 4 -17 2 12 2 30 0 40 -3 9 -5 -1 -4 -23z"/>
</g>
</svg>
